# xmcd
#
# Track frame offsets:
#	182
#	16207
#	29200
#	49635
#	76325
#	87212
#	101232
#	125920
#	136230
#	152465
#	169272
#	179847
#	197582
#	221387
#	235685
#	242940
#	255562
#	268082
#
# Disc length: 3759 seconds
#
# Revision: 17
# Processed by: cddbd v1.5.2PL0 Copyright (c) Steve Scherf et al.
# Submitted via: audiograbber 1.83.01
#
DISCID=fd0ead12
DTITLE=Antonio Vivaldi - Klassik Sammlung Nr. 5 - Höhepunkt des Barock
DYEAR=1995
DGENRE=Classical
TTITLE0=Konzerte, in E - Dur, R.269 "Frühling": Allegro
TTITLE1=Konzerte, in E - Dur, R.269 "Frühling": Largo e pianissimo sempre
TTITLE2=Konzerte, in E-Dur, R.269 "Frühling": Pastoral dance - Allegro
TTITLE3=Konzert, in g - moll, R.315 "Sommer": Allegro non molto
TTITLE4=Konzert, in g-moll, R.315 "Sommer": Adagio - Presto
TTITLE5=Konzert, in g - moll, R.315 "Sommer": Presto
TTITLE6=Konzert, in F - Dur, R.293 "Herbst": Allegro
TTITLE7=Konzert, in F - Dur, R.293 "Herbst": Adagio
TTITLE8=Konzert, in F - Dur, R.293 "Herbst": Allegro
TTITLE9=Konzert, in F - Dur, R.297 "Winter": Allegro non molto
TTITLE10=Konzert, in F - Dur, R.297 "Winter": Largo
TTITLE11=Konzert, in F - Dur, R.297 "Winter": Allegro
TTITLE12=Sinfonie, in C - Dur: Allegro molto
TTITLE13=Sinfonie, in C - Dur: Larghetto
TTITLE14=Sinfonie, in C - Dur: Allegro
TTITLE15=Konzert, in A - Dur - Allegro molto
TTITLE16=Konzert, in A - Dur - Andante
TTITLE17=Konzert, in A - Dur - Allegro
EXTD=Reihe: Die Klassik Sammlung\n(P) Point Classics A.G.\n 1993 Orbis Publishi
EXTD=ng Ltd.
EXTT0=The Musicians of San Marco\nDirigent: Alberto Lizzio
EXTT1=The Musicians of San Marco\nDirigent: Alberto Lizzio
EXTT2=The Musicians of San Marco\nDirigent: Alberto Lizzio
EXTT3=The Musicians of San Marco\nDirigent: Alberto Lizzio
EXTT4=The Musicians of San Marco\nDirigent: Alberto Lizzio
EXTT5=The Musicians of San Marco\nDirigent: Alberto Lizzio
EXTT6=The Musicians of San Marco\nDirigent: Alberto Lizzio
EXTT7=The Musicians of San Marco\nDirigent: Alberto Lizzio
EXTT8=The Musicians of San Marco\nDirigent: Alberto Lizzio
EXTT9=The Musicians of San Marco\nDirigent: Alberto Lizzio
EXTT10=The Musicians of San Marco\nDirigent: Alberto Lizzio
EXTT11=The Musicians of San Marco\nDirigent: Alberto Lizzio
EXTT12=The Soloists of Zagreb
EXTT13=The Soloists of Zagreb
EXTT14=The Soloists of Zagreb
EXTT15=The Soloists of Zagreb
EXTT16=The Soloists of Zagreb
EXTT17=The Soloists of Zagreb
PLAYORDER=
